# xmcd
#
# Track frame offsets: 
#        150
#        18007
#        38209
#        55993
#        76348
#        90767
#        103074
#        118952
#        132966
#        150999
#
# Disc length: 2185 seconds
#
# Revision: 0
# Processed by: cddbd v1.5.2PL0 Copyright (c) Steve Scherf et al.
# Submitted via: ExactAudioCopy v0.95b4
#
DISCID=6e08870a
DTITLE=Marty Roybon - Hand To The Plow
DYEAR=2012
DGENRE=Country
TTITLE0=I've Seen What He Can Do
TTITLE1=I'm Working On A Building
TTITLE2=He's Still Doing Miracles Today
TTITLE3=Walking With God At A Guilty Distance
TTITLE4=When He Reigns, It Pours
TTITLE5=What Have I Done To Deserve This?
TTITLE6=You Get Me
TTITLE7=He's Still My Little Man (Matty's Song)
TTITLE8=Bright New Morning
TTITLE9=You've Got To Move
EXTD=
EXTT0=
EXTT1=
EXTT2=
EXTT3=
EXTT4=
EXTT5=
EXTT6=
EXTT7=
EXTT8=
EXTT9=
PLAYORDER=
